<mxfile host="app.diagrams.net" modified="2023-10-18T20:33:02.284Z" agent="Mozilla/5.0 (Windows NT 10.0; Win64; x64; rv:109.0) Gecko/20100101 Firefox/118.0" etag="GzlFqVEE6dq-7K1A6Krn" version="22.0.4" type="device">
  <diagram name="Page-1" id="utY_LT_nmhFpNKdy2aTu">
    <mxGraphModel dx="7827" dy="3587" grid="1" gridSize="10" guides="1" tooltips="1" connect="1" arrows="1" fold="1" page="1" pageScale="1" pageWidth="827" pageHeight="1169" math="0" shadow="0">
      <root>
        <mxCell id="0" />
        <mxCell id="1" parent="0" />
        <mxCell id="oWTCg2_sNXzXvzO919nh-1" value="" style="rounded=0;whiteSpace=wrap;html=1;fillColor=none;" parent="1" vertex="1">
          <mxGeometry x="40" y="200" width="160" height="40" as="geometry" />
        </mxCell>
        <mxCell id="oWTCg2_sNXzXvzO919nh-31" style="edgeStyle=orthogonalEdgeStyle;rounded=0;orthogonalLoop=1;jettySize=auto;html=1;exitX=0.5;exitY=1;exitDx=0;exitDy=0;entryX=0.5;entryY=0;entryDx=0;entryDy=0;" parent="1" source="oWTCg2_sNXzXvzO919nh-3" target="oWTCg2_sNXzXvzO919nh-24" edge="1">
          <mxGeometry relative="1" as="geometry" />
        </mxCell>
        <mxCell id="oWTCg2_sNXzXvzO919nh-3" value="" style="rounded=0;whiteSpace=wrap;html=1;fillColor=#dae8fc;strokeColor=#6c8ebf;" parent="1" vertex="1">
          <mxGeometry x="160" y="280" width="40" height="40" as="geometry" />
        </mxCell>
        <mxCell id="oWTCg2_sNXzXvzO919nh-4" value="" style="rounded=0;whiteSpace=wrap;html=1;fillColor=none;" parent="1" vertex="1">
          <mxGeometry x="240" y="200" width="160" height="40" as="geometry" />
        </mxCell>
        <mxCell id="oWTCg2_sNXzXvzO919nh-32" style="edgeStyle=orthogonalEdgeStyle;rounded=0;orthogonalLoop=1;jettySize=auto;html=1;exitX=0.5;exitY=1;exitDx=0;exitDy=0;entryX=0.5;entryY=0;entryDx=0;entryDy=0;" parent="1" source="oWTCg2_sNXzXvzO919nh-5" target="oWTCg2_sNXzXvzO919nh-19" edge="1">
          <mxGeometry relative="1" as="geometry">
            <Array as="points">
              <mxPoint x="380" y="340" />
              <mxPoint x="400" y="340" />
            </Array>
          </mxGeometry>
        </mxCell>
        <mxCell id="oWTCg2_sNXzXvzO919nh-5" value="" style="rounded=0;whiteSpace=wrap;html=1;fillColor=#d5e8d4;strokeColor=#82b366;" parent="1" vertex="1">
          <mxGeometry x="360" y="280" width="40" height="40" as="geometry" />
        </mxCell>
        <mxCell id="oWTCg2_sNXzXvzO919nh-6" value="" style="rounded=0;whiteSpace=wrap;html=1;fillColor=none;" parent="1" vertex="1">
          <mxGeometry x="440" y="200" width="160" height="40" as="geometry" />
        </mxCell>
        <mxCell id="oWTCg2_sNXzXvzO919nh-33" style="edgeStyle=orthogonalEdgeStyle;rounded=0;orthogonalLoop=1;jettySize=auto;html=1;exitX=0.5;exitY=1;exitDx=0;exitDy=0;entryX=0.5;entryY=0;entryDx=0;entryDy=0;" parent="1" source="oWTCg2_sNXzXvzO919nh-7" target="oWTCg2_sNXzXvzO919nh-21" edge="1">
          <mxGeometry relative="1" as="geometry">
            <Array as="points">
              <mxPoint x="580" y="340" />
              <mxPoint x="440" y="340" />
            </Array>
          </mxGeometry>
        </mxCell>
        <mxCell id="oWTCg2_sNXzXvzO919nh-7" value="" style="rounded=0;whiteSpace=wrap;html=1;fillColor=#fff2cc;strokeColor=#d6b656;" parent="1" vertex="1">
          <mxGeometry x="560" y="280" width="40" height="40" as="geometry" />
        </mxCell>
        <mxCell id="oWTCg2_sNXzXvzO919nh-8" value="" style="rounded=0;whiteSpace=wrap;html=1;fillColor=none;" parent="1" vertex="1">
          <mxGeometry x="640" y="200" width="160" height="40" as="geometry" />
        </mxCell>
        <mxCell id="oWTCg2_sNXzXvzO919nh-34" style="edgeStyle=orthogonalEdgeStyle;rounded=0;orthogonalLoop=1;jettySize=auto;html=1;exitX=0.5;exitY=1;exitDx=0;exitDy=0;entryX=0.5;entryY=0;entryDx=0;entryDy=0;" parent="1" source="oWTCg2_sNXzXvzO919nh-9" target="oWTCg2_sNXzXvzO919nh-20" edge="1">
          <mxGeometry relative="1" as="geometry" />
        </mxCell>
        <mxCell id="oWTCg2_sNXzXvzO919nh-9" value="" style="rounded=0;whiteSpace=wrap;html=1;fillColor=#f8cecc;strokeColor=#b85450;" parent="1" vertex="1">
          <mxGeometry x="760" y="280" width="40" height="40" as="geometry" />
        </mxCell>
        <mxCell id="oWTCg2_sNXzXvzO919nh-30" style="edgeStyle=orthogonalEdgeStyle;rounded=0;orthogonalLoop=1;jettySize=auto;html=1;entryX=0.5;entryY=0;entryDx=0;entryDy=0;" parent="1" source="oWTCg2_sNXzXvzO919nh-11" target="oWTCg2_sNXzXvzO919nh-9" edge="1">
          <mxGeometry relative="1" as="geometry" />
        </mxCell>
        <mxCell id="oWTCg2_sNXzXvzO919nh-11" value="" style="rounded=0;whiteSpace=wrap;html=1;fillColor=#f8cecc;strokeColor=#b85450;" parent="1" vertex="1">
          <mxGeometry x="760" y="200" width="40" height="40" as="geometry" />
        </mxCell>
        <mxCell id="oWTCg2_sNXzXvzO919nh-26" style="edgeStyle=orthogonalEdgeStyle;rounded=0;orthogonalLoop=1;jettySize=auto;html=1;exitX=0.5;exitY=1;exitDx=0;exitDy=0;entryX=0.5;entryY=0;entryDx=0;entryDy=0;" parent="1" source="oWTCg2_sNXzXvzO919nh-12" target="oWTCg2_sNXzXvzO919nh-3" edge="1">
          <mxGeometry relative="1" as="geometry" />
        </mxCell>
        <mxCell id="oWTCg2_sNXzXvzO919nh-12" value="" style="rounded=0;whiteSpace=wrap;html=1;fillColor=#dae8fc;strokeColor=#6c8ebf;" parent="1" vertex="1">
          <mxGeometry x="160" y="200" width="40" height="40" as="geometry" />
        </mxCell>
        <mxCell id="oWTCg2_sNXzXvzO919nh-28" style="edgeStyle=orthogonalEdgeStyle;rounded=0;orthogonalLoop=1;jettySize=auto;html=1;exitX=0.5;exitY=1;exitDx=0;exitDy=0;entryX=0.5;entryY=0;entryDx=0;entryDy=0;" parent="1" source="oWTCg2_sNXzXvzO919nh-16" target="oWTCg2_sNXzXvzO919nh-5" edge="1">
          <mxGeometry relative="1" as="geometry" />
        </mxCell>
        <mxCell id="oWTCg2_sNXzXvzO919nh-16" value="" style="rounded=0;whiteSpace=wrap;html=1;fillColor=#d5e8d4;strokeColor=#82b366;" parent="1" vertex="1">
          <mxGeometry x="360" y="200" width="40" height="40" as="geometry" />
        </mxCell>
        <mxCell id="oWTCg2_sNXzXvzO919nh-29" style="edgeStyle=orthogonalEdgeStyle;rounded=0;orthogonalLoop=1;jettySize=auto;html=1;exitX=0.5;exitY=1;exitDx=0;exitDy=0;entryX=0.5;entryY=0;entryDx=0;entryDy=0;" parent="1" source="oWTCg2_sNXzXvzO919nh-17" target="oWTCg2_sNXzXvzO919nh-7" edge="1">
          <mxGeometry relative="1" as="geometry" />
        </mxCell>
        <mxCell id="oWTCg2_sNXzXvzO919nh-17" value="" style="rounded=0;whiteSpace=wrap;html=1;fillColor=#fff2cc;strokeColor=#d6b656;" parent="1" vertex="1">
          <mxGeometry x="560" y="200" width="40" height="40" as="geometry" />
        </mxCell>
        <mxCell id="oWTCg2_sNXzXvzO919nh-19" value="" style="rounded=0;whiteSpace=wrap;html=1;fillColor=#d5e8d4;strokeColor=#82b366;" parent="1" vertex="1">
          <mxGeometry x="380" y="400" width="40" height="40" as="geometry" />
        </mxCell>
        <mxCell id="oWTCg2_sNXzXvzO919nh-20" value="" style="rounded=0;whiteSpace=wrap;html=1;fillColor=#f8cecc;strokeColor=#b85450;" parent="1" vertex="1">
          <mxGeometry x="460" y="400" width="40" height="40" as="geometry" />
        </mxCell>
        <mxCell id="oWTCg2_sNXzXvzO919nh-21" value="" style="rounded=0;whiteSpace=wrap;html=1;fillColor=#fff2cc;strokeColor=#d6b656;" parent="1" vertex="1">
          <mxGeometry x="420" y="400" width="40" height="40" as="geometry" />
        </mxCell>
        <mxCell id="oWTCg2_sNXzXvzO919nh-24" value="" style="rounded=0;whiteSpace=wrap;html=1;fillColor=#dae8fc;strokeColor=#6c8ebf;" parent="1" vertex="1">
          <mxGeometry x="340" y="400" width="40" height="40" as="geometry" />
        </mxCell>
        <mxCell id="oWTCg2_sNXzXvzO919nh-35" value="" style="endArrow=none;dashed=1;html=1;rounded=0;exitX=0;exitY=1;exitDx=0;exitDy=0;entryX=0;entryY=0;entryDx=0;entryDy=0;" parent="1" source="oWTCg2_sNXzXvzO919nh-1" target="oWTCg2_sNXzXvzO919nh-12" edge="1">
          <mxGeometry width="50" height="50" relative="1" as="geometry">
            <mxPoint x="390" y="420" as="sourcePoint" />
            <mxPoint x="440" y="370" as="targetPoint" />
          </mxGeometry>
        </mxCell>
        <mxCell id="oWTCg2_sNXzXvzO919nh-36" value="" style="endArrow=none;dashed=1;html=1;rounded=0;exitX=0;exitY=1;exitDx=0;exitDy=0;entryX=0;entryY=0;entryDx=0;entryDy=0;" parent="1" edge="1">
          <mxGeometry width="50" height="50" relative="1" as="geometry">
            <mxPoint x="240" y="240" as="sourcePoint" />
            <mxPoint x="360" y="200" as="targetPoint" />
          </mxGeometry>
        </mxCell>
        <mxCell id="oWTCg2_sNXzXvzO919nh-37" value="" style="endArrow=none;dashed=1;html=1;rounded=0;exitX=0;exitY=1;exitDx=0;exitDy=0;entryX=0;entryY=0;entryDx=0;entryDy=0;" parent="1" edge="1">
          <mxGeometry width="50" height="50" relative="1" as="geometry">
            <mxPoint x="440" y="240" as="sourcePoint" />
            <mxPoint x="560" y="200" as="targetPoint" />
          </mxGeometry>
        </mxCell>
        <mxCell id="oWTCg2_sNXzXvzO919nh-38" value="" style="endArrow=none;dashed=1;html=1;rounded=0;exitX=0;exitY=1;exitDx=0;exitDy=0;entryX=0;entryY=0;entryDx=0;entryDy=0;" parent="1" edge="1">
          <mxGeometry width="50" height="50" relative="1" as="geometry">
            <mxPoint x="640" y="240" as="sourcePoint" />
            <mxPoint x="760" y="200" as="targetPoint" />
          </mxGeometry>
        </mxCell>
        <mxCell id="oWTCg2_sNXzXvzO919nh-71" style="edgeStyle=orthogonalEdgeStyle;rounded=0;orthogonalLoop=1;jettySize=auto;html=1;exitX=0.5;exitY=1;exitDx=0;exitDy=0;entryX=0.5;entryY=0;entryDx=0;entryDy=0;" parent="1" source="oWTCg2_sNXzXvzO919nh-39" target="oWTCg2_sNXzXvzO919nh-59" edge="1">
          <mxGeometry relative="1" as="geometry" />
        </mxCell>
        <mxCell id="oWTCg2_sNXzXvzO919nh-39" value="" style="rounded=0;whiteSpace=wrap;html=1;fillColor=#dae8fc;strokeColor=#6c8ebf;" parent="1" vertex="1">
          <mxGeometry x="100" y="680" width="40" height="40" as="geometry" />
        </mxCell>
        <mxCell id="oWTCg2_sNXzXvzO919nh-72" style="edgeStyle=orthogonalEdgeStyle;rounded=0;orthogonalLoop=1;jettySize=auto;html=1;exitX=0.5;exitY=1;exitDx=0;exitDy=0;entryX=0.5;entryY=0;entryDx=0;entryDy=0;" parent="1" source="oWTCg2_sNXzXvzO919nh-40" target="oWTCg2_sNXzXvzO919nh-60" edge="1">
          <mxGeometry relative="1" as="geometry" />
        </mxCell>
        <mxCell id="oWTCg2_sNXzXvzO919nh-40" value="" style="rounded=0;whiteSpace=wrap;html=1;fillColor=#d5e8d4;strokeColor=#82b366;" parent="1" vertex="1">
          <mxGeometry x="300" y="680" width="40" height="40" as="geometry" />
        </mxCell>
        <mxCell id="oWTCg2_sNXzXvzO919nh-73" style="edgeStyle=orthogonalEdgeStyle;rounded=0;orthogonalLoop=1;jettySize=auto;html=1;exitX=0.5;exitY=1;exitDx=0;exitDy=0;entryX=0.5;entryY=0;entryDx=0;entryDy=0;" parent="1" source="oWTCg2_sNXzXvzO919nh-41" target="oWTCg2_sNXzXvzO919nh-61" edge="1">
          <mxGeometry relative="1" as="geometry" />
        </mxCell>
        <mxCell id="oWTCg2_sNXzXvzO919nh-41" value="" style="rounded=0;whiteSpace=wrap;html=1;fillColor=#fff2cc;strokeColor=#d6b656;" parent="1" vertex="1">
          <mxGeometry x="500" y="680" width="40" height="40" as="geometry" />
        </mxCell>
        <mxCell id="oWTCg2_sNXzXvzO919nh-74" style="edgeStyle=orthogonalEdgeStyle;rounded=0;orthogonalLoop=1;jettySize=auto;html=1;exitX=0.5;exitY=1;exitDx=0;exitDy=0;entryX=0.5;entryY=0;entryDx=0;entryDy=0;" parent="1" source="oWTCg2_sNXzXvzO919nh-42" target="oWTCg2_sNXzXvzO919nh-62" edge="1">
          <mxGeometry relative="1" as="geometry" />
        </mxCell>
        <mxCell id="oWTCg2_sNXzXvzO919nh-42" value="" style="rounded=0;whiteSpace=wrap;html=1;fillColor=#f8cecc;strokeColor=#b85450;" parent="1" vertex="1">
          <mxGeometry x="700" y="680" width="40" height="40" as="geometry" />
        </mxCell>
        <mxCell id="oWTCg2_sNXzXvzO919nh-43" value="" style="rounded=0;whiteSpace=wrap;html=1;fillColor=#d5e8d4;strokeColor=#82b366;" parent="1" vertex="1">
          <mxGeometry x="380" y="480" width="40" height="40" as="geometry" />
        </mxCell>
        <mxCell id="oWTCg2_sNXzXvzO919nh-44" value="" style="rounded=0;whiteSpace=wrap;html=1;fillColor=#f8cecc;strokeColor=#b85450;" parent="1" vertex="1">
          <mxGeometry x="460" y="480" width="40" height="40" as="geometry" />
        </mxCell>
        <mxCell id="oWTCg2_sNXzXvzO919nh-45" value="" style="rounded=0;whiteSpace=wrap;html=1;fillColor=#fff2cc;strokeColor=#d6b656;" parent="1" vertex="1">
          <mxGeometry x="420" y="480" width="40" height="40" as="geometry" />
        </mxCell>
        <mxCell id="oWTCg2_sNXzXvzO919nh-46" value="" style="rounded=0;whiteSpace=wrap;html=1;fillColor=#dae8fc;strokeColor=#6c8ebf;" parent="1" vertex="1">
          <mxGeometry x="340" y="480" width="40" height="40" as="geometry" />
        </mxCell>
        <mxCell id="oWTCg2_sNXzXvzO919nh-55" style="edgeStyle=orthogonalEdgeStyle;rounded=0;orthogonalLoop=1;jettySize=auto;html=1;exitX=0.5;exitY=1;exitDx=0;exitDy=0;entryX=0.5;entryY=0;entryDx=0;entryDy=0;" parent="1" source="oWTCg2_sNXzXvzO919nh-47" target="oWTCg2_sNXzXvzO919nh-40" edge="1">
          <mxGeometry relative="1" as="geometry" />
        </mxCell>
        <mxCell id="oWTCg2_sNXzXvzO919nh-47" value="" style="rounded=0;whiteSpace=wrap;html=1;fillColor=#d5e8d4;strokeColor=#82b366;" parent="1" vertex="1">
          <mxGeometry x="380" y="560" width="40" height="40" as="geometry" />
        </mxCell>
        <mxCell id="oWTCg2_sNXzXvzO919nh-58" style="edgeStyle=orthogonalEdgeStyle;rounded=0;orthogonalLoop=1;jettySize=auto;html=1;exitX=0.5;exitY=1;exitDx=0;exitDy=0;entryX=0.5;entryY=0;entryDx=0;entryDy=0;" parent="1" source="oWTCg2_sNXzXvzO919nh-48" target="oWTCg2_sNXzXvzO919nh-42" edge="1">
          <mxGeometry relative="1" as="geometry">
            <Array as="points">
              <mxPoint x="480" y="620" />
              <mxPoint x="720" y="620" />
            </Array>
          </mxGeometry>
        </mxCell>
        <mxCell id="oWTCg2_sNXzXvzO919nh-48" value="" style="rounded=0;whiteSpace=wrap;html=1;fillColor=#f8cecc;strokeColor=#b85450;" parent="1" vertex="1">
          <mxGeometry x="460" y="560" width="40" height="40" as="geometry" />
        </mxCell>
        <mxCell id="oWTCg2_sNXzXvzO919nh-56" style="edgeStyle=orthogonalEdgeStyle;rounded=0;orthogonalLoop=1;jettySize=auto;html=1;exitX=0.5;exitY=1;exitDx=0;exitDy=0;entryX=0.5;entryY=0;entryDx=0;entryDy=0;" parent="1" source="oWTCg2_sNXzXvzO919nh-49" target="oWTCg2_sNXzXvzO919nh-41" edge="1">
          <mxGeometry relative="1" as="geometry" />
        </mxCell>
        <mxCell id="oWTCg2_sNXzXvzO919nh-49" value="" style="rounded=0;whiteSpace=wrap;html=1;fillColor=#fff2cc;strokeColor=#d6b656;" parent="1" vertex="1">
          <mxGeometry x="420" y="560" width="40" height="40" as="geometry" />
        </mxCell>
        <mxCell id="oWTCg2_sNXzXvzO919nh-57" style="edgeStyle=orthogonalEdgeStyle;rounded=0;orthogonalLoop=1;jettySize=auto;html=1;exitX=0.5;exitY=1;exitDx=0;exitDy=0;entryX=0.5;entryY=0;entryDx=0;entryDy=0;" parent="1" source="oWTCg2_sNXzXvzO919nh-50" target="oWTCg2_sNXzXvzO919nh-39" edge="1">
          <mxGeometry relative="1" as="geometry">
            <Array as="points">
              <mxPoint x="360" y="620" />
              <mxPoint x="120" y="620" />
            </Array>
          </mxGeometry>
        </mxCell>
        <mxCell id="oWTCg2_sNXzXvzO919nh-50" value="" style="rounded=0;whiteSpace=wrap;html=1;fillColor=#dae8fc;strokeColor=#6c8ebf;" parent="1" vertex="1">
          <mxGeometry x="340" y="560" width="40" height="40" as="geometry" />
        </mxCell>
        <mxCell id="oWTCg2_sNXzXvzO919nh-51" value="" style="endArrow=none;html=1;rounded=0;" parent="1" edge="1">
          <mxGeometry width="50" height="50" relative="1" as="geometry">
            <mxPoint x="420" y="470" as="sourcePoint" />
            <mxPoint x="420" y="450" as="targetPoint" />
          </mxGeometry>
        </mxCell>
        <mxCell id="oWTCg2_sNXzXvzO919nh-52" value="" style="endArrow=none;html=1;rounded=0;" parent="1" edge="1">
          <mxGeometry width="50" height="50" relative="1" as="geometry">
            <mxPoint x="410" y="460" as="sourcePoint" />
            <mxPoint x="430" y="460" as="targetPoint" />
          </mxGeometry>
        </mxCell>
        <mxCell id="oWTCg2_sNXzXvzO919nh-53" value="" style="endArrow=none;html=1;rounded=0;" parent="1" edge="1">
          <mxGeometry width="50" height="50" relative="1" as="geometry">
            <mxPoint x="410" y="535" as="sourcePoint" />
            <mxPoint x="430" y="535" as="targetPoint" />
          </mxGeometry>
        </mxCell>
        <mxCell id="oWTCg2_sNXzXvzO919nh-54" value="" style="endArrow=none;html=1;rounded=0;" parent="1" edge="1">
          <mxGeometry width="50" height="50" relative="1" as="geometry">
            <mxPoint x="410" y="545" as="sourcePoint" />
            <mxPoint x="430" y="545" as="targetPoint" />
          </mxGeometry>
        </mxCell>
        <mxCell id="oWTCg2_sNXzXvzO919nh-59" value="" style="rounded=0;whiteSpace=wrap;html=1;fillColor=#dae8fc;strokeColor=#6c8ebf;" parent="1" vertex="1">
          <mxGeometry x="40" y="760" width="160" height="40" as="geometry" />
        </mxCell>
        <mxCell id="oWTCg2_sNXzXvzO919nh-60" value="" style="rounded=0;whiteSpace=wrap;html=1;fillColor=#d5e8d4;strokeColor=#82b366;" parent="1" vertex="1">
          <mxGeometry x="240" y="760" width="160" height="40" as="geometry" />
        </mxCell>
        <mxCell id="oWTCg2_sNXzXvzO919nh-61" value="" style="rounded=0;whiteSpace=wrap;html=1;fillColor=#fff2cc;strokeColor=#d6b656;" parent="1" vertex="1">
          <mxGeometry x="440" y="760" width="160" height="40" as="geometry" />
        </mxCell>
        <mxCell id="oWTCg2_sNXzXvzO919nh-62" value="" style="rounded=0;whiteSpace=wrap;html=1;fillColor=#f8cecc;strokeColor=#b85450;" parent="1" vertex="1">
          <mxGeometry x="640" y="760" width="160" height="40" as="geometry" />
        </mxCell>
        <mxCell id="oWTCg2_sNXzXvzO919nh-75" value="int (4 bytes)" style="text;html=1;strokeColor=none;fillColor=none;align=center;verticalAlign=middle;whiteSpace=wrap;rounded=0;" parent="1" vertex="1">
          <mxGeometry x="-80" y="200" width="80" height="40" as="geometry" />
        </mxCell>
        <mxCell id="oWTCg2_sNXzXvzO919nh-76" value="char (1 byte)" style="text;html=1;strokeColor=none;fillColor=none;align=center;verticalAlign=middle;whiteSpace=wrap;rounded=0;" parent="1" vertex="1">
          <mxGeometry x="-80" y="280" width="80" height="40" as="geometry" />
        </mxCell>
        <mxCell id="oWTCg2_sNXzXvzO919nh-77" value="int (4 bytes)" style="text;html=1;strokeColor=none;fillColor=none;align=center;verticalAlign=middle;whiteSpace=wrap;rounded=0;" parent="1" vertex="1">
          <mxGeometry x="-80" y="400" width="80" height="40" as="geometry" />
        </mxCell>
        <mxCell id="oWTCg2_sNXzXvzO919nh-78" value="int (4 bytes)" style="text;html=1;strokeColor=none;fillColor=none;align=center;verticalAlign=middle;whiteSpace=wrap;rounded=0;" parent="1" vertex="1">
          <mxGeometry x="-80" y="480" width="80" height="40" as="geometry" />
        </mxCell>
        <mxCell id="oWTCg2_sNXzXvzO919nh-79" value="int (4 bytes)" style="text;html=1;strokeColor=none;fillColor=none;align=center;verticalAlign=middle;whiteSpace=wrap;rounded=0;" parent="1" vertex="1">
          <mxGeometry x="-80" y="560" width="80" height="40" as="geometry" />
        </mxCell>
        <mxCell id="oWTCg2_sNXzXvzO919nh-80" value="char (1 byte)" style="text;html=1;strokeColor=none;fillColor=none;align=center;verticalAlign=middle;whiteSpace=wrap;rounded=0;" parent="1" vertex="1">
          <mxGeometry x="-80" y="680" width="80" height="40" as="geometry" />
        </mxCell>
        <mxCell id="oWTCg2_sNXzXvzO919nh-81" value="int (4 bytes)" style="text;html=1;strokeColor=none;fillColor=none;align=center;verticalAlign=middle;whiteSpace=wrap;rounded=0;" parent="1" vertex="1">
          <mxGeometry x="-80" y="760" width="80" height="40" as="geometry" />
        </mxCell>
        <mxCell id="oWTCg2_sNXzXvzO919nh-82" value="" style="shape=curlyBracket;whiteSpace=wrap;html=1;rounded=1;flipH=1;labelPosition=right;verticalLabelPosition=middle;align=left;verticalAlign=middle;" parent="1" vertex="1">
          <mxGeometry x="840" y="200" width="40" height="240" as="geometry" />
        </mxCell>
        <mxCell id="oWTCg2_sNXzXvzO919nh-83" value="" style="shape=curlyBracket;whiteSpace=wrap;html=1;rounded=1;flipH=1;labelPosition=right;verticalLabelPosition=middle;align=left;verticalAlign=middle;" parent="1" vertex="1">
          <mxGeometry x="840" y="560" width="40" height="240" as="geometry" />
        </mxCell>
        <mxCell id="oWTCg2_sNXzXvzO919nh-84" value="" style="shape=curlyBracket;whiteSpace=wrap;html=1;rounded=1;flipH=1;labelPosition=right;verticalLabelPosition=middle;align=left;verticalAlign=middle;" parent="1" vertex="1">
          <mxGeometry x="560" y="400" width="40" height="200" as="geometry" />
        </mxCell>
        <mxCell id="oWTCg2_sNXzXvzO919nh-85" value="Add 2 compressed int&#39;s (4+4 uncompressed int&#39;s)" style="text;html=1;strokeColor=none;fillColor=none;align=center;verticalAlign=middle;whiteSpace=wrap;rounded=0;" parent="1" vertex="1">
          <mxGeometry x="600" y="480" width="160" height="40" as="geometry" />
        </mxCell>
        <mxCell id="oWTCg2_sNXzXvzO919nh-86" value="Compress 4 uncompressed ints&#39;s into 1 compressd int" style="text;html=1;strokeColor=none;fillColor=none;align=center;verticalAlign=middle;whiteSpace=wrap;rounded=0;" parent="1" vertex="1">
          <mxGeometry x="880" y="280" width="160" height="80" as="geometry" />
        </mxCell>
        <mxCell id="oWTCg2_sNXzXvzO919nh-87" value="Decompress 1 compressed int into 4 uncompressed int&#39;s" style="text;html=1;strokeColor=none;fillColor=none;align=center;verticalAlign=middle;whiteSpace=wrap;rounded=0;" parent="1" vertex="1">
          <mxGeometry x="880" y="640" width="160" height="80" as="geometry" />
        </mxCell>
        <mxCell id="oWTCg2_sNXzXvzO919nh-88" value="" style="shape=curlyBracket;whiteSpace=wrap;html=1;rounded=1;labelPosition=left;verticalLabelPosition=middle;align=right;verticalAlign=middle;" parent="1" vertex="1">
          <mxGeometry y="200" width="20" height="40" as="geometry" />
        </mxCell>
        <mxCell id="oWTCg2_sNXzXvzO919nh-89" value="" style="shape=curlyBracket;whiteSpace=wrap;html=1;rounded=1;labelPosition=left;verticalLabelPosition=middle;align=right;verticalAlign=middle;" parent="1" vertex="1">
          <mxGeometry y="280" width="20" height="40" as="geometry" />
        </mxCell>
        <mxCell id="oWTCg2_sNXzXvzO919nh-90" value="" style="shape=curlyBracket;whiteSpace=wrap;html=1;rounded=1;labelPosition=left;verticalLabelPosition=middle;align=right;verticalAlign=middle;" parent="1" vertex="1">
          <mxGeometry y="400" width="20" height="40" as="geometry" />
        </mxCell>
        <mxCell id="oWTCg2_sNXzXvzO919nh-91" value="" style="shape=curlyBracket;whiteSpace=wrap;html=1;rounded=1;labelPosition=left;verticalLabelPosition=middle;align=right;verticalAlign=middle;" parent="1" vertex="1">
          <mxGeometry y="480" width="20" height="40" as="geometry" />
        </mxCell>
        <mxCell id="oWTCg2_sNXzXvzO919nh-94" value="" style="shape=curlyBracket;whiteSpace=wrap;html=1;rounded=1;labelPosition=left;verticalLabelPosition=middle;align=right;verticalAlign=middle;" parent="1" vertex="1">
          <mxGeometry y="560" width="20" height="40" as="geometry" />
        </mxCell>
        <mxCell id="oWTCg2_sNXzXvzO919nh-95" value="" style="shape=curlyBracket;whiteSpace=wrap;html=1;rounded=1;labelPosition=left;verticalLabelPosition=middle;align=right;verticalAlign=middle;" parent="1" vertex="1">
          <mxGeometry y="680" width="20" height="40" as="geometry" />
        </mxCell>
        <mxCell id="oWTCg2_sNXzXvzO919nh-96" value="" style="shape=curlyBracket;whiteSpace=wrap;html=1;rounded=1;labelPosition=left;verticalLabelPosition=middle;align=right;verticalAlign=middle;" parent="1" vertex="1">
          <mxGeometry y="760" width="20" height="40" as="geometry" />
        </mxCell>
      </root>
    </mxGraphModel>
  </diagram>
</mxfile>
